<?xml version="1.0" encoding="utf-8"?>
<!-- Generator: Adobe Illustrator 17.1.0, SVG Export Plug-In . SVG Version: 6.00 Build 0)  -->
<!DOCTYPE svg PUBLIC "-//W3C//DTD SVG 1.1//EN" "http://www.w3.org/Graphics/SVG/1.1/DTD/svg11.dtd">
<svg version="1.1" id="Layer_1" xmlns="http://www.w3.org/2000/svg" xmlns:xlink="http://www.w3.org/1999/xlink" x="0px" y="0px"
	 viewBox="0 0 85 45.4" style="enable-background:new 0 0 85 45.4;" xml:space="preserve">
<g>
	<path style="fill:#F3EB35;" d="M3.2,21.9h6.2v13.2h8.7v5.3H3.2V21.9z"/>
	<path style="fill:#F3EB35;" d="M34.9,26h6v2c0.9-1.2,2.4-2.4,4.4-2.4c3,0,4.9,2,4.9,5.3v9.5h-6v-7.6c0-1.2-0.7-2-1.6-2
		c-0.9,0-1.7,0.7-1.7,2v7.6h-6V26z"/>
	<path style="fill:#F3EB35;" d="M51.5,26h6v2c0.9-1.2,2.4-2.4,4.4-2.4c3,0,4.9,2,4.9,5.3v9.5h-6v-7.6c0-1.2-0.7-2-1.6-2
		c-0.9,0-1.7,0.7-1.7,2v7.6h-6V26z"/>
	<path style="fill:#F3EB35;" d="M66.8,43.2l1.7-4.1c1.1,0.6,2.1,1,2.6,1c0.3,0,0.7-0.1,1-0.2L66.5,26h6.2l2.5,7.6l2.3-7.6h6.1
		l-5,13.4c-1.4,3.8-2.9,5.3-6.3,5.3C70.3,44.7,68.4,44.1,66.8,43.2z"/>
	<path style="fill:#F3EB35;" d="M1.4,17.2l3.4-4.1c2.1,1.6,4.4,2.2,6.7,2.2c1.1,0,1.6-0.3,1.6-0.8v-0.1c0-0.5-0.6-0.8-2.6-1.3
		c-4.3-0.9-8-2.1-8-6.1V7.1c0-3.6,2.8-6.4,8.1-6.4c3.7,0,6.4,0.9,8.6,2.6L16,7.6c-1.8-1.3-3.9-1.9-5.7-1.9c-1,0-1.4,0.3-1.4,0.8v0.1
		c0,0.5,0.5,0.8,2.5,1.2c4.9,0.9,8.1,2.3,8.1,6.1V14c0,4-3.3,6.4-8.4,6.4C7.3,20.4,3.8,19.3,1.4,17.2z"/>
	<path style="fill:#F3EB35;" d="M20.3,15V5.2h6.2V13c0,1.3,0.8,2,1.7,2s1.8-0.7,1.8-2V5.2h6.2v14.8h-6.2v-2c-1,1.2-2.4,2.3-4.5,2.3
		C22.2,20.4,20.3,18.3,20.3,15z"/>
	<path style="fill:#F3EB35;" d="M37.5,5.2h6.2V7c1-1.1,2.1-2.2,4.4-2.2c3.6,0,6.4,3.1,6.4,7.7v0.1c0,4.7-2.8,7.8-6.3,7.8
		c-2.3,0-3.5-1-4.5-2v6h-6.2V5.2z M48.5,12.7L48.5,12.7c0-1.5-1.1-2.7-2.5-2.7c-1.4,0-2.5,1.2-2.5,2.7v0.1c0,1.5,1.1,2.7,2.5,2.7
		C47.4,15.3,48.5,14.2,48.5,12.7z"/>
	<path style="fill:#F3EB35;" d="M55.2,12.7L55.2,12.7c0-4.5,3.2-7.9,7.6-7.9c5.3,0,7.7,3.7,7.7,8.2c0,0.3,0,0.7,0,1H61
		c0.4,1.3,1.5,2,2.8,2c1.1,0,2-0.5,3-1.5l3.3,2.6c-1.5,1.9-3.6,3.2-6.8,3.2C58.5,20.4,55.2,17.3,55.2,12.7z M64.9,11.4
		c-0.1-1.4-1-2.2-2.1-2.2c-1,0-1.8,0.9-2,2.2H64.9z"/>
	<path style="fill:#F3EB35;" d="M71.9,5.2h6.2v3c0.8-2,2.2-3.3,4.6-3.2v6.6h-0.7c-2.6,0-4,1.4-4,4.7v3.8h-6.2V5.2z"/>
	<path style="fill:#F3EB35;" d="M18.4,33.3L18.4,33.3c0-4.5,3.2-7.9,7.6-7.9c5.3,0,7.7,3.7,7.7,8.2c0,0.3,0,0.7,0,1h-9.5
		c0.4,1.3,1.5,2,2.8,2c1.1,0,2-0.5,3-1.5l3.3,2.6c-1.5,1.9-3.6,3.2-6.8,3.2C21.7,40.9,18.4,37.9,18.4,33.3z M28.2,31.9
		c-0.1-1.4-1-2.2-2.1-2.2c-1,0-1.8,0.9-2,2.2H28.2z"/>
</g>
</svg>
