<?xml version="1.0" encoding="utf-8"?>
<!-- Generator: Adobe Illustrator 18.1.1, SVG Export Plug-In . SVG Version: 6.00 Build 0)  -->
<!DOCTYPE svg PUBLIC "-//W3C//DTD SVG 1.1//EN" "http://www.w3.org/Graphics/SVG/1.1/DTD/svg11.dtd">
<svg version="1.1" id="Layer_1" xmlns="http://www.w3.org/2000/svg" xmlns:xlink="http://www.w3.org/1999/xlink" x="0px" y="0px"
	 viewBox="0 0 765.4 141.7" enable-background="new 0 0 765.4 141.7" xml:space="preserve">
<g>
	<path fill="#F3EB35" d="M28.3,91.1l14.9-17.8c9.1,6.9,19.4,9.8,29.2,9.8c5,0,7.2-1.3,7.2-3.6v-0.2c0-2.4-2.6-3.7-11.6-5.5
		C49.3,70,32.9,64.7,32.9,47v-0.2c0-15.9,12.4-28.2,35.4-28.2c16.1,0,28,3.8,37.7,11.5L92.4,48.9c-7.9-5.7-17.3-8.2-25-8.2
		c-4.2,0-6.1,1.4-6.1,3.5v0.2c0,2.3,2.3,3.7,11.1,5.4c21.4,3.9,35.7,10.1,35.7,27v0.2c0,17.5-14.4,28.3-36.9,28.3
		C54.2,105.2,39,100.4,28.3,91.1z"/>
	<path fill="#F3EB35" d="M110.3,81.5V38.5h27.1v34.2c0,5.6,3.3,8.8,7.4,8.8c4.1,0,7.8-3.2,7.8-8.8V38.5h27.1v65.1h-27.1V95
		c-4.2,5.4-10.7,10.3-19.9,10.3C118.9,105.2,110.3,96.2,110.3,81.5z"/>
	<path fill="#F3EB35" d="M184.7,38.5h27.1v8c4.4-4.8,9.4-9.5,19.3-9.5c15.7,0,28,13.7,28,33.6v0.2c0,20.6-12.4,34.4-27.8,34.4
		c-9.9,0-15.4-4.3-19.6-8.9v26.5h-27.1V38.5z M232.9,71.2V71c0-6.6-4.7-11.7-10.9-11.7c-6.2,0-10.9,5.1-10.9,11.7v0.2
		c0,6.4,4.7,11.7,10.9,11.7C228.3,82.9,232.9,77.8,232.9,71.2z"/>
	<path fill="#F3EB35" d="M260.4,71.5v-0.2c0-19.4,14-34.2,33.5-34.2c23.1,0,33.9,16.1,33.9,35.9c0,1.4,0,3.1-0.1,4.5h-41.9
		c1.9,5.7,6.4,8.7,12.3,8.7c4.9,0,8.9-2.3,13.2-6.7L325.8,91c-6.4,8.3-15.6,14.2-29.7,14.2C274.8,105.2,260.4,91.7,260.4,71.5z
		 M303.1,65.5c-0.6-6.2-4.3-9.8-9.1-9.8c-4.5,0-7.8,3.8-8.6,9.8H303.1z"/>
	<path fill="#F3EB35" d="M330.7,38.5h27.1v13.1c3.7-8.8,9.7-14.6,20.4-14.1v28.7h-2.9c-11.5,0-17.5,6.3-17.5,20.8v16.6h-27.1V38.5z"
		/>
	<path fill="#F3EB35" d="M380.6,20.2h27.9v59.6h39.2v23.9h-67.2V20.2z"/>
	<path fill="#F3EB35" d="M446.9,71.5v-0.2c0-19.4,14-34.2,33.5-34.2c23.1,0,33.9,16.1,33.9,35.9c0,1.4,0,3.1-0.1,4.5h-41.9
		c1.9,5.7,6.4,8.7,12.3,8.7c4.9,0,8.9-2.3,13.2-6.7L512.4,91c-6.4,8.3-15.6,14.2-29.7,14.2C461.3,105.2,446.9,91.7,446.9,71.5z
		 M489.6,65.5c-0.6-6.2-4.3-9.8-9.1-9.8c-4.5,0-7.8,3.8-8.6,9.8H489.6z"/>
	<path fill="#F3EB35" d="M517.3,38.5h27.1v9.1c4.2-5.4,10.7-10.6,19.9-10.6c13.7,0,22.3,9.1,22.3,23.7v42.9h-27.1V69.4
		c0-5.6-3.3-8.8-7.4-8.8c-4.1,0-7.8,3.2-7.8,8.8v34.2h-27.1V38.5z"/>
	<path fill="#F3EB35" d="M591.2,38.5h27.1v9.1c4.2-5.4,10.7-10.6,19.9-10.6c13.7,0,22.3,9.1,22.3,23.7v42.9h-27.1V69.4
		c0-5.6-3.3-8.8-7.4-8.8c-4.1,0-7.8,3.2-7.8,8.8v34.2h-27.1V38.5z"/>
	<path fill="#F3EB35" d="M661,116.3l7.9-18.5c4.9,2.7,9.4,4.3,11.9,4.3c1.6,0,3-0.2,4.4-1l-25.5-62.6h28l11.3,34.4l10.4-34.4H737
		l-22.5,60.6c-6.3,17.1-13.2,24-28.3,24C676.8,123.1,668.3,120.4,661,116.3z"/>
</g>
</svg>
